<?xml version="1.0" encoding="UTF-8"?><!DOCTYPE svg PUBLIC "-//W3C//DTD SVG 1.1//EN" "http://www.w3.org/Graphics/SVG/1.1/DTD/svg11.dtd"><svg xmlns="http://www.w3.org/2000/svg" xmlns:xlink="http://www.w3.org/1999/xlink"><defs/><symbol id="icon-__wkwebhack" viewBox="0 0 1 1">
  <script>
    //<![CDATA[
      if (window && window.parent && window.location.search.match(/postHack=/)) {
        setTimeout(function() {
          var filename = window.location.search.match(/postHack=([^&]+)/)[1];
          var message = 'SVGICON:' + filename + ':' + ':' + (new XMLSerializer()).serializeToString(document);
          window.parent.postMessage(message, '*');
        }, 0);
      }
    //]]>
  </script>
</symbol><symbol id="icon-build" viewBox="0 -960 960 960"><path d="m639.167-276.5 44.667-42q6.333-6.484 6.333-15.575t-6.439-15.821L535.333-497.667q4.834-13 7.75-25.731Q546-536.13 546-549.862q0-57.104-40.484-97.871-40.483-40.767-97.658-40.767-11.557 0-21.93 1.528t-20.261 5.805q-9.167 4.834-13 13.334-3.834 8.5 2.833 14.833l70.667 69.5L375-534.833 306.09-603q-5.8-5.667-13.907-4.333-8.107 1.333-11.516 9.166-5 11.167-6.917 23.584-1.917 12.416-1.917 24.583 0 56.5 39.613 95.917 39.612 39.416 96.387 39.416 13.61 0 26.688-2.5t26.312-7.5l147.104 148.062q6.063 6.439 15.48 6.439 9.417 0 15.75-6.334ZM480.043-86.667q-80.95 0-152.775-31.096-71.825-31.097-125.13-84.5-53.305-53.404-84.388-125.115-31.083-71.711-31.083-152.579 0-81.616 31.096-153.442 31.097-71.825 84.5-124.963 53.404-53.138 125.115-84.055 71.711-30.916 152.579-30.916 81.616 0 153.446 31.008 71.829 31.009 124.963 84.167t84.051 124.869q30.916 71.712 30.916 153.246 0 80.95-30.929 152.775-30.93 71.825-84.167 125.13Q705-148.833 633.289-117.75q-71.712 31.083-153.246 31.083Z"/></symbol><symbol id="icon-check" viewBox="0 -960 960 960"><path d="m344-60-76-128-144-32 14-148-98-112 98-112-14-148 144-32 76-128 136 58 136-58 76 128 144 32-14 148 98 112-98 112 14 148-144 32-76 128-136-58-136 58Zm34-102 102-44 104 44 56-96 110-26-10-112 74-84-74-86 10-112-110-24-58-96-102 44-104-44-56 96-110 24 10 112-74 86 74 84-10 114 110 24 58 96Zm102-318Zm-42 142 226-226-56-58-170 170-86-84-56 56 142 142Z"/></symbol><symbol id="icon-logo" viewBox="0 0 180 180">
  <path fill="#B4F000" d="M81.007 71.45a8.025 8.025 0 0 0 10.915 3.098 8.023 8.023 0 0 0 3.098-10.914L88.654 52.22l-24.6-44.104a8.023 8.023 0 0 0-14.013 7.816L81.007 71.45Z"/>
  <path fill="#99CC00" d="M91.352 74.883c-.292.12-.587.219-.885.299a8.023 8.023 0 0 0 4.553-11.548L88.654 52.22l24.91-43.694.005.003a7.6 7.6 0 0 1 4.59-3.585 7.485 7.485 0 0 1 5.741.751v.013a7.635 7.635 0 0 1 3.552 4.653 7.716 7.716 0 0 1-.756 5.812l-31.535 55.32.004.001a7.672 7.672 0 0 1-1.22 1.65 7.607 7.607 0 0 1-1.626 1.262l-.818.477h-.149Z"/>
  <path fill="#B4F000" d="M70.45 96.1a8.025 8.025 0 0 0 3.098-10.914 8.023 8.023 0 0 0-10.914-3.098L51.22 88.454 7.116 113.055a8.022 8.022 0 1 0 7.816 14.012L70.45 96.101Z"/>
  <path fill="#99CC00" d="M73.883 85.756a7.5 7.5 0 0 1 .299.885 8.023 8.023 0 0 0-11.548-4.553L51.22 88.454 7.526 63.544l.003-.005a7.598 7.598 0 0 1-3.585-4.59 7.487 7.487 0 0 1 .751-5.741h.013a7.635 7.635 0 0 1 4.653-3.552 7.716 7.716 0 0 1 5.812.756l55.32 31.535.001-.004a7.676 7.676 0 0 1 1.65 1.22c.476.463.904 1.01 1.262 1.626l.477.818v.149Z"/>
  <path fill="#4651B8" d="M95.727 108.754a8.026 8.026 0 0 0-9.459-3.732 8.022 8.022 0 0 0-4.553 11.548l6.366 11.414 24.6 44.104a8.023 8.023 0 0 0 14.013-7.816l-30.967-55.518Z"/>
  <path fill="#333C91" d="M85.234 105.321h.149c.291-.119.587-.218.885-.299a8.022 8.022 0 0 0-4.553 11.548l6.366 11.414-24.91 43.695-.005-.003a7.6 7.6 0 0 1-4.59 3.584 7.487 7.487 0 0 1-5.741-.751v-.013a7.634 7.634 0 0 1-3.552-4.653 7.717 7.717 0 0 1 .756-5.812l31.535-55.319-.004-.002a7.656 7.656 0 0 1 1.22-1.649 7.596 7.596 0 0 1 1.625-1.263l.819-.477Z"/>
  <path fill="#4651B8" d="M109.049 82.096a8.026 8.026 0 0 0-3.732 9.46 8.022 8.022 0 0 0 11.548 4.553l11.414-6.367 44.104-24.6a8.023 8.023 0 1 0-7.816-14.012l-55.518 30.966Z"/>
  <path fill="#333C91" d="M105.616 92.59v-.149a7.669 7.669 0 0 1-.299-.885 8.022 8.022 0 0 0 11.548 4.553l11.414-6.367 43.695 24.911-.003.005a7.594 7.594 0 0 1 3.584 4.589 7.488 7.488 0 0 1-.751 5.742h-.013a7.637 7.637 0 0 1-4.653 3.552 7.722 7.722 0 0 1-5.812-.756L109.007 96.25l-.002.003a7.656 7.656 0 0 1-1.649-1.22v.001a7.596 7.596 0 0 1-1.263-1.626l-.477-.818Z"/>
</symbol><symbol id="icon-warning" viewBox="0 -960 960 960"><path d="M84.218-102.109q-12.316 0-21.168-5.936-8.852-5.936-12.746-14.259-5.405-6.84-5.703-17.776-.297-10.937 5.703-20.616l396.783-684.239q5-9.478 14.361-14.337 9.362-4.858 18.577-4.858 9.214 0 18.551 4.858 9.337 4.859 15.337 14.337l396.783 684.239q5 9.679 4.702 20.616-.297 10.936-4.702 17.776-5.283 7.878-14.182 14.037-8.899 6.158-19.732 6.158H84.217Zm62.282-74.913h667L480-752.935 146.5-177.022Zm338.121-51.522q14.799 0 24.991-10.35t10.192-24.851q0-14.262-10.367-24.954-10.368-10.692-25.167-10.692-14.561 0-25.057 10.642-10.496 10.643-10.496 25.337 0 14.509 10.672 24.689 10.671 10.179 25.232 10.179Zm0-117.934q14.422 0 24.325-10.147 9.902-10.147 9.902-24.94V-536q0-14.058-10.078-24.072-10.077-10.015-24.5-10.015-14.184 0-24.39 10.015-10.206 10.014-10.206 24.072v154.435q0 14.793 10.381 24.94 10.382 10.147 24.566 10.147Zm-4.621-119Z"/></symbol></svg>