<svg xmlns="http://www.w3.org/2000/svg" viewBox="0 -960 960 960"><path d="m639.167-276.5 44.667-42q6.333-6.484 6.333-15.575t-6.439-15.821L535.333-497.667q4.834-13 7.75-25.731Q546-536.13 546-549.862q0-57.104-40.484-97.871-40.483-40.767-97.658-40.767-11.557 0-21.93 1.528t-20.261 5.805q-9.167 4.834-13 13.334-3.834 8.5 2.833 14.833l70.667 69.5L375-534.833 306.09-603q-5.8-5.667-13.907-4.333-8.107 1.333-11.516 9.166-5 11.167-6.917 23.584-1.917 12.416-1.917 24.583 0 56.5 39.613 95.917 39.612 39.416 96.387 39.416 13.61 0 26.688-2.5t26.312-7.5l147.104 148.062q6.063 6.439 15.48 6.439 9.417 0 15.75-6.334ZM480.043-86.667q-80.95 0-152.775-31.096-71.825-31.097-125.13-84.5-53.305-53.404-84.388-125.115-31.083-71.711-31.083-152.579 0-81.616 31.096-153.442 31.097-71.825 84.5-124.963 53.404-53.138 125.115-84.055 71.711-30.916 152.579-30.916 81.616 0 153.446 31.008 71.829 31.009 124.963 84.167t84.051 124.869q30.916 71.712 30.916 153.246 0 80.95-30.929 152.775-30.93 71.825-84.167 125.13Q705-148.833 633.289-117.75q-71.712 31.083-153.246 31.083Z"/></svg>
