<svg xmlns="http://www.w3.org/2000/svg" viewBox="0 0 180 180">
  <path fill="#B4F000" d="M81.007 71.45a8.025 8.025 0 0 0 10.915 3.098 8.023 8.023 0 0 0 3.098-10.914L88.654 52.22l-24.6-44.104a8.023 8.023 0 0 0-14.013 7.816L81.007 71.45Z"/>
  <path fill="#99CC00" d="M91.352 74.883c-.292.12-.587.219-.885.299a8.023 8.023 0 0 0 4.553-11.548L88.654 52.22l24.91-43.694.005.003a7.6 7.6 0 0 1 4.59-3.585 7.485 7.485 0 0 1 5.741.751v.013a7.635 7.635 0 0 1 3.552 4.653 7.716 7.716 0 0 1-.756 5.812l-31.535 55.32.004.001a7.672 7.672 0 0 1-1.22 1.65 7.607 7.607 0 0 1-1.626 1.262l-.818.477h-.149Z"/>
  <path fill="#B4F000" d="M70.45 96.1a8.025 8.025 0 0 0 3.098-10.914 8.023 8.023 0 0 0-10.914-3.098L51.22 88.454 7.116 113.055a8.022 8.022 0 1 0 7.816 14.012L70.45 96.101Z"/>
  <path fill="#99CC00" d="M73.883 85.756a7.5 7.5 0 0 1 .299.885 8.023 8.023 0 0 0-11.548-4.553L51.22 88.454 7.526 63.544l.003-.005a7.598 7.598 0 0 1-3.585-4.59 7.487 7.487 0 0 1 .751-5.741h.013a7.635 7.635 0 0 1 4.653-3.552 7.716 7.716 0 0 1 5.812.756l55.32 31.535.001-.004a7.676 7.676 0 0 1 1.65 1.22c.476.463.904 1.01 1.262 1.626l.477.818v.149Z"/>
  <path fill="#4651B8" d="M95.727 108.754a8.026 8.026 0 0 0-9.459-3.732 8.022 8.022 0 0 0-4.553 11.548l6.366 11.414 24.6 44.104a8.023 8.023 0 0 0 14.013-7.816l-30.967-55.518Z"/>
  <path fill="#333C91" d="M85.234 105.321h.149c.291-.119.587-.218.885-.299a8.022 8.022 0 0 0-4.553 11.548l6.366 11.414-24.91 43.695-.005-.003a7.6 7.6 0 0 1-4.59 3.584 7.487 7.487 0 0 1-5.741-.751v-.013a7.634 7.634 0 0 1-3.552-4.653 7.717 7.717 0 0 1 .756-5.812l31.535-55.319-.004-.002a7.656 7.656 0 0 1 1.22-1.649 7.596 7.596 0 0 1 1.625-1.263l.819-.477Z"/>
  <path fill="#4651B8" d="M109.049 82.096a8.026 8.026 0 0 0-3.732 9.46 8.022 8.022 0 0 0 11.548 4.553l11.414-6.367 44.104-24.6a8.023 8.023 0 1 0-7.816-14.012l-55.518 30.966Z"/>
  <path fill="#333C91" d="M105.616 92.59v-.149a7.669 7.669 0 0 1-.299-.885 8.022 8.022 0 0 0 11.548 4.553l11.414-6.367 43.695 24.911-.003.005a7.594 7.594 0 0 1 3.584 4.589 7.488 7.488 0 0 1-.751 5.742h-.013a7.637 7.637 0 0 1-4.653 3.552 7.722 7.722 0 0 1-5.812-.756L109.007 96.25l-.002.003a7.656 7.656 0 0 1-1.649-1.22v.001a7.596 7.596 0 0 1-1.263-1.626l-.477-.818Z"/>
</svg>
