<svg xmlns="http://www.w3.org/2000/svg" viewBox="0 -960 960 960"><path d="M84.218-102.109q-12.316 0-21.168-5.936-8.852-5.936-12.746-14.259-5.405-6.84-5.703-17.776-.297-10.937 5.703-20.616l396.783-684.239q5-9.478 14.361-14.337 9.362-4.858 18.577-4.858 9.214 0 18.551 4.858 9.337 4.859 15.337 14.337l396.783 684.239q5 9.679 4.702 20.616-.297 10.936-4.702 17.776-5.283 7.878-14.182 14.037-8.899 6.158-19.732 6.158H84.217Zm62.282-74.913h667L480-752.935 146.5-177.022Zm338.121-51.522q14.799 0 24.991-10.35t10.192-24.851q0-14.262-10.367-24.954-10.368-10.692-25.167-10.692-14.561 0-25.057 10.642-10.496 10.643-10.496 25.337 0 14.509 10.672 24.689 10.671 10.179 25.232 10.179Zm0-117.934q14.422 0 24.325-10.147 9.902-10.147 9.902-24.94V-536q0-14.058-10.078-24.072-10.077-10.015-24.5-10.015-14.184 0-24.39 10.015-10.206 10.014-10.206 24.072v154.435q0 14.793 10.381 24.94 10.382 10.147 24.566 10.147Zm-4.621-119Z"/></svg>
